<?xml version="1.0" encoding="utf-8"?>
<!-- Generator: Adobe Illustrator 16.0.0, SVG Export Plug-In . SVG Version: 6.00 Build 0)  -->
<!DOCTYPE svg PUBLIC "-//W3C//DTD SVG 1.1//EN" "http://www.w3.org/Graphics/SVG/1.1/DTD/svg11.dtd">
<svg version="1.1" id="Layer_1" xmlns="http://www.w3.org/2000/svg" xmlns:xlink="http://www.w3.org/1999/xlink" x="0px" y="0px"
	 width="266.811px" height="100px" viewBox="0 0 266.811 100" enable-background="new 0 0 266.811 100" xml:space="preserve">
<g>
	<path fill="#007BC2" d="M40.379,47.156c-4.812-3.916-9.315-6.267-13.512-7.049C21.301,38.736,15.679,40.149,10,44.346
		c4.225-5.512,8.714-9.315,13.469-11.414c2.91-1.314,5.791-1.706,8.645-1.175c0.559,0.14,1.078,0.293,1.552,0.461
		c0.364,0.168,0.713,0.335,1.049,0.503c2.126,1.203,3.847,2.881,5.161,5.035c-3.607-2.629-6.979-3.79-10.113-3.482
		c-2.294,0.112-4.462,0.755-6.504,1.93c3.777,0.168,7.12,1.091,10.029,2.769c0.027,0.028,0.056,0.057,0.083,0.084
		c1.147,0.671,2.126,1.398,2.937,2.183C38.071,42.946,39.428,44.918,40.379,47.156z"/>
	<path fill="#C6C6C5" d="M24.771,60.122c-0.364-0.337-0.7-0.687-1.008-1.048c5.428-0.394,10.253-0.295,14.478,0.292
		C33.624,59.366,29.134,59.619,24.771,60.122z M39.876,55.004c-4-1.008-8.714-1.008-14.141,0l0.377-1.176
		c2.713-0.783,5.539-1.021,8.476-0.713C36.631,53.479,38.395,54.107,39.876,55.004z M24.813,56.977l0.377-1.26
		c4.979-0.728,9.791,0.167,14.435,2.687C33.806,57.145,28.868,56.668,24.813,56.977z M19.567,66.166l1.342-2.227
		c4.083,1.793,8.574,3.261,13.469,4.405C27.861,67.508,22.924,66.779,19.567,66.166z"/>
	<path fill="#2C2A29" d="M23.763,59.074c0.309,0.361,0.645,0.711,1.008,1.048c2.572,2.546,6.168,5.329,10.782,8.351
		c-6.126-2.686-11.775-5.898-16.951-9.648c-5.343-4-7.833-7.497-7.47-10.49c0.588-2.658,3.315-4.224,8.184-4.699
		c3.805-0.252,7.372,0.07,10.701,0.965c4.084,1.147,6.909,2.21,8.476,3.188c-5.175-1.482-9.888-1.678-14.141-0.587
		c-3.833,1.313-5.188,3.623-4.07,6.924C20.896,55.633,22.057,57.282,23.763,59.074z"/>
	<g>
		<path fill="#007BC2" d="M239.968,39.478c-0.645,0.252-1.203,0.644-1.68,1.175c-0.476,0.504-0.839,1.133-1.093,1.888
			c-0.25,0.756-0.377,1.623-0.377,2.602c0,0.811,0.141,1.553,0.421,2.224c0.252,0.671,0.63,1.259,1.133,1.763
			c0.477,0.476,1.05,0.854,1.72,1.134c0.673,0.25,1.413,0.376,2.226,0.376c0.783,0,1.482-0.11,2.1-0.336
			c0.589-0.251,1.063-0.573,1.429-0.965c0.393-0.42,0.686-0.839,0.883-1.259c0.168-0.448,0.293-0.909,0.377-1.384h3.521
			c-0.109,0.839-0.351,1.636-0.712,2.392c-0.169,0.363-0.393,0.727-0.672,1.091l-0.883,0.925c-0.672,0.611-1.553,1.104-2.645,1.467
			c-1.117,0.337-2.447,0.504-3.986,0.504c-0.67,0-1.313-0.042-1.931-0.125c-0.588-0.112-1.146-0.281-1.679-0.504
			c-0.532-0.226-1.007-0.479-1.427-0.756c-0.447-0.311-0.84-0.646-1.176-1.006c-0.363-0.395-0.67-0.813-0.926-1.262
			c-0.251-0.448-0.475-0.91-0.671-1.386c-0.337-0.979-0.504-2.042-0.504-3.188c0-1.119,0.167-2.168,0.504-3.146
			c0.363-0.979,0.896-1.86,1.597-2.643c0.729-0.755,1.637-1.343,2.729-1.763c0.562-0.224,1.16-0.392,1.805-0.503
			c0.646-0.112,1.343-0.167,2.099-0.167l1.849,0.125c0.587,0.084,1.132,0.21,1.636,0.378c1.036,0.308,1.903,0.755,2.604,1.343
			c0.727,0.56,1.287,1.216,1.68,1.972c0.392,0.728,0.628,1.525,0.712,2.392h-3.529c-0.082-0.587-0.252-1.105-0.502-1.553
			c-0.279-0.476-0.646-0.881-1.093-1.217c-0.896-0.644-2.028-0.965-3.397-0.965C241.323,39.1,240.609,39.226,239.968,39.478z
			 M257.254,52.652h-3.396v-3.104h3.396V52.652z M51.499,37.085v15.567h-3.272V37.085H51.499z M57.835,40.946v11.707h-3.146V37.085
			h3.733l9.273,11.667h0.042V37.085h3.146v15.567h-3.691l-9.315-11.708L57.835,40.946L57.835,40.946z M89.257,43.212
			c0.083-0.531,0.225-1.049,0.419-1.552c0.335-0.979,0.868-1.847,1.595-2.602c0.392-0.364,0.824-0.7,1.301-1.007
			c0.476-0.308,1.007-0.56,1.594-0.756c0.588-0.224,1.231-0.392,1.931-0.503c0.672-0.112,1.413-0.167,2.225-0.167
			c0.783,0,1.523,0.055,2.224,0.167c0.699,0.112,1.342,0.28,1.931,0.503c1.174,0.419,2.125,1.007,2.853,1.763
			c0.364,0.391,0.685,0.797,0.965,1.216c0.251,0.448,0.476,0.923,0.671,1.427c0.336,0.979,0.504,2.029,0.504,3.146
			c0,1.147-0.167,2.21-0.504,3.188c-0.195,0.504-0.419,0.98-0.671,1.427c-0.28,0.42-0.602,0.826-0.965,1.219
			c-0.728,0.754-1.679,1.342-2.853,1.763c-0.589,0.224-1.231,0.393-1.931,0.505c-0.7,0.081-1.44,0.125-2.224,0.125
			c-0.812,0-1.553-0.044-2.225-0.125c-0.698-0.112-1.343-0.281-1.931-0.505c-0.587-0.226-1.118-0.478-1.594-0.757
			c-0.477-0.309-0.896-0.645-1.259-1.006c-0.755-0.784-1.302-1.665-1.637-2.646c-0.363-0.979-0.545-2.042-0.545-3.188
			C89.131,44.29,89.173,43.744,89.257,43.212z M87.041,39.52h-9.693v3.944h9.147v2.434h-9.147v6.756h-3.272V37.085h12.966V39.52z
			 M94.083,40.652c-0.504,0.531-0.896,1.146-1.176,1.846c-0.251,0.699-0.377,1.483-0.377,2.35c0,1.764,0.518,3.161,1.553,4.196
			c0.503,0.531,1.104,0.938,1.804,1.218c0.699,0.25,1.511,0.376,2.435,0.376c0.895,0,1.691-0.128,2.392-0.376
			c0.699-0.28,1.3-0.687,1.805-1.218c0.53-0.504,0.923-1.104,1.175-1.805c0.251-0.7,0.377-1.496,0.377-2.393
			c0-0.867-0.126-1.65-0.377-2.35c-0.252-0.699-0.645-1.315-1.175-1.846c-1.008-1.035-2.406-1.552-4.196-1.552
			C96.502,39.1,95.089,39.617,94.083,40.652z M190.914,44.009l4.447-6.923h3.986l-6.799,9.652v5.917h-3.271v-5.917l-6.84-9.652
			h3.983L190.914,44.009z M169.683,39.52v4.532h5.666c0.922,0,1.621-0.167,2.098-0.503c0.447-0.336,0.673-0.923,0.673-1.762
			c0-0.392-0.058-0.742-0.169-1.049c-0.141-0.28-0.32-0.504-0.547-0.671c-0.475-0.363-1.158-0.545-2.055-0.545h-5.666V39.52z
			 M180.382,38.261c0.393,0.363,0.688,0.797,0.883,1.301c0.168,0.531,0.252,1.119,0.252,1.762c0,0.476-0.058,0.909-0.168,1.301
			c-0.111,0.419-0.293,0.783-0.547,1.091c-0.447,0.643-1.062,1.091-1.847,1.342v0.043c0.867,0.196,1.469,0.644,1.805,1.342
			c0.142,0.337,0.253,0.742,0.337,1.217c0.084,0.504,0.127,1.062,0.127,1.678l0.084,1.637l0.209,0.924
			c0.084,0.31,0.209,0.562,0.377,0.757h-3.564c-0.252-0.478-0.379-1.261-0.379-2.351l-0.082-1.594
			c-0.085-0.447-0.213-0.84-0.381-1.175c-0.193-0.336-0.475-0.588-0.838-0.754c-0.363-0.196-0.824-0.295-1.385-0.295h-5.582v6.167
			h-3.273V37.085h9.86c0.951,0,1.773,0.098,2.477,0.294C179.416,37.575,179.963,37.869,180.382,38.261z M231.111,37.085v15.567
			h-3.69l-9.314-11.708h-0.043v11.708h-3.146V37.085h3.733l9.271,11.667h0.042V37.085H231.111z M211.728,37.085v15.567h-3.271
			V37.085H211.728z M127.022,39.771l-5.749,12.881h-2.771l-5.749-12.881h-0.042l0.125,12.881h-3.062V37.085h4.699l5.454,12.085
			l5.413-12.085h4.699v15.567h-3.104l0.125-12.881H127.022z M163.814,39.52h-5.875v13.134h-3.272V39.52h-5.833v-2.434h14.98V39.52
			L163.814,39.52z M146.744,37.085v2.434h-10.239v3.944h9.819v2.434h-9.819v4.322h10.449v2.435h-13.721V37.085H146.744z"/>
	</g>
	<g>
		<path fill="#333333" d="M158.582,61.96v2.006h0.727c0.427,0,0.753-0.101,0.98-0.3c0.229-0.143,0.341-0.368,0.341-0.682
			c0-0.314-0.113-0.569-0.341-0.77c-0.229-0.171-0.554-0.257-0.98-0.257L158.582,61.96L158.582,61.96z M157.217,57.82h1.451
			c0.569,0,0.996,0.026,1.281,0.086c0.255,0.056,0.497,0.156,0.724,0.298c0.285,0.144,0.514,0.354,0.685,0.642
			c0.143,0.313,0.212,0.609,0.212,0.896c0,0.312-0.058,0.583-0.17,0.812c-0.143,0.257-0.34,0.47-0.597,0.642
			c0.825,0.285,1.237,0.896,1.237,1.834c0,0.771-0.328,1.352-0.98,1.75c-0.428,0.285-1.054,0.428-1.879,0.428h-1.963L157.217,57.82
			L157.217,57.82z M158.582,59.061v1.619h0.428c0.397,0,0.683-0.057,0.854-0.171c0.114-0.059,0.198-0.142,0.255-0.256
			s0.085-0.228,0.085-0.341c0-0.258-0.085-0.457-0.255-0.6c-0.171-0.17-0.441-0.254-0.812-0.254h-0.554V59.061z M146.633,57.82
			v7.382h-1.321V57.82H146.633z M150.518,60.639c-0.398,0-0.739,0.127-1.024,0.383c-0.284,0.229-0.47,0.541-0.555,0.938h3.114
			c-0.085-0.341-0.256-0.642-0.513-0.896C151.257,60.779,150.915,60.639,150.518,60.639z M148.084,60.68
			c0.284-0.427,0.654-0.738,1.108-0.938c0.398-0.198,0.826-0.298,1.28-0.298c0.911,0,1.637,0.342,2.178,1.022
			c0.483,0.567,0.726,1.207,0.726,1.92l-0.085,0.642h-4.31c0.086,0.313,0.256,0.599,0.512,0.854
			c0.285,0.198,0.611,0.302,0.981,0.302c0.512,0,0.925-0.244,1.236-0.729h1.409c-0.144,0.482-0.413,0.896-0.812,1.236
			c-0.541,0.482-1.139,0.727-1.792,0.727c-0.598,0-1.139-0.156-1.621-0.469c-0.484-0.285-0.841-0.698-1.067-1.238
			c-0.17-0.396-0.256-0.812-0.256-1.236C147.573,61.816,147.743,61.223,148.084,60.68z M141.428,60.68
			c-0.482,0-0.882,0.17-1.194,0.512c-0.312,0.345-0.471,0.755-0.471,1.238c0,0.57,0.2,1.01,0.599,1.322
			c0.312,0.286,0.683,0.43,1.109,0.43s0.812-0.174,1.151-0.516c0.286-0.312,0.427-0.725,0.427-1.236
			c0-0.483-0.141-0.883-0.427-1.194C142.281,60.865,141.882,60.68,141.428,60.68z M138.525,57.82h1.322v2.347
			c0.456-0.454,1.038-0.683,1.75-0.683c0.513,0,1.01,0.142,1.494,0.428c0.428,0.283,0.739,0.684,0.939,1.195
			c0.255,0.427,0.383,0.881,0.383,1.364c0,0.343-0.072,0.685-0.213,1.021c-0.143,0.37-0.314,0.686-0.513,0.94
			c-0.513,0.652-1.194,0.979-2.049,0.979c-0.37,0-0.725-0.069-1.066-0.214c-0.284-0.144-0.554-0.355-0.812-0.639v0.639h-1.237
			L138.525,57.82L138.525,57.82z M132.765,62.473c0,0.428,0.129,0.797,0.385,1.11c0.341,0.397,0.769,0.599,1.279,0.599
			c0.483,0,0.883-0.174,1.195-0.516c0.284-0.339,0.426-0.738,0.426-1.193c0-0.539-0.143-0.953-0.426-1.237
			c-0.312-0.368-0.712-0.556-1.195-0.556c-0.511,0-0.924,0.188-1.236,0.556c-0.143,0.172-0.241,0.355-0.298,0.555
			C132.809,62.016,132.765,62.245,132.765,62.473z M132.68,64.947c-0.455-0.313-0.798-0.74-1.023-1.281
			c-0.143-0.396-0.214-0.811-0.214-1.236c0-0.826,0.255-1.521,0.769-2.093c0.541-0.567,1.209-0.853,2.005-0.853
			c0.513,0,0.996,0.155,1.452,0.47c0.171,0.142,0.312,0.271,0.426,0.383v-0.685h1.194v5.549h-1.194v-0.684
			c-0.086,0.114-0.241,0.241-0.469,0.385c-0.485,0.342-0.98,0.513-1.493,0.513C133.59,65.416,133.106,65.26,132.68,64.947z
			 M130.033,60.296c0.171,0.228,0.299,0.483,0.383,0.769c0.085,0.283,0.128,0.653,0.128,1.108v3.03h-1.366v-2.73
			c0-0.685-0.112-1.151-0.341-1.408c-0.086-0.111-0.2-0.215-0.342-0.299c-0.141-0.057-0.284-0.086-0.426-0.086
			c-0.198,0-0.383,0.058-0.554,0.17c-0.199,0.114-0.343,0.242-0.427,0.386c-0.085,0.112-0.143,0.271-0.171,0.47l-0.043,3.499h-1.322
			v-5.549h1.236v0.473c0.229-0.229,0.484-0.386,0.77-0.473c0.228-0.111,0.482-0.168,0.768-0.168c0.312,0,0.64,0.067,0.981,0.213
			C129.592,59.841,129.835,60.039,130.033,60.296z M116.421,59.654h1.322v5.548h-1.322V59.654z M117.744,57.82v1.194h-1.322V57.82
			H117.744z M122.651,61.107c-0.285-0.285-0.612-0.431-0.981-0.431c-0.483,0-0.896,0.216-1.236,0.642
			c-0.257,0.285-0.384,0.655-0.384,1.108c0,0.571,0.199,1.025,0.598,1.367c0.283,0.256,0.625,0.385,1.023,0.385
			c0.483,0,0.896-0.198,1.238-0.598c0.255-0.313,0.384-0.685,0.384-1.109C123.292,61.902,123.078,61.447,122.651,61.107z
			 M121.669,59.484c0.882,0,1.608,0.312,2.177,0.938c0.513,0.569,0.769,1.25,0.769,2.05c0,0.882-0.341,1.623-1.024,2.22
			c-0.568,0.481-1.208,0.726-1.92,0.726c-0.483,0-0.938-0.128-1.365-0.383c-0.513-0.229-0.896-0.556-1.152-0.982
			c-0.285-0.513-0.426-1.052-0.426-1.622c0-0.854,0.312-1.593,0.938-2.22C120.233,59.754,120.902,59.514,121.669,59.484z
			 M112.836,59.654h0.641V57.82h1.322v1.834h0.812v1.238h-0.812v4.31h-1.322v-4.31h-0.641V59.654z M103.747,62.004l-0.811-2.264
			l-0.769,2.264H103.747z M107.118,63.752c-0.199-0.398-0.299-0.839-0.299-1.322c0-0.854,0.328-1.58,0.981-2.178
			c0.54-0.513,1.195-0.768,1.962-0.768c0.769,0,1.438,0.255,2.008,0.768c0.197,0.198,0.354,0.398,0.469,0.598
			c0.114,0.17,0.213,0.386,0.299,0.643h-1.494c-0.143-0.285-0.328-0.484-0.554-0.6c-0.2-0.142-0.441-0.215-0.728-0.215
			c-0.397,0-0.753,0.146-1.065,0.43c-0.37,0.313-0.554,0.768-0.554,1.365c0,0.483,0.171,0.896,0.511,1.235
			c0.285,0.313,0.669,0.472,1.152,0.472s0.896-0.257,1.237-0.77h1.494c-0.199,0.57-0.511,1.009-0.938,1.322
			c-0.229,0.198-0.499,0.354-0.812,0.47c-0.369,0.144-0.711,0.214-1.024,0.214c-0.568,0-1.108-0.171-1.62-0.512
			C107.688,64.62,107.346,64.234,107.118,63.752z M101.7,63.283l-0.855,1.92h-1.493l3.071-7.383h1.109l3.072,7.383h-1.494
			l-0.812-1.92H101.7L101.7,63.283z M225.236,65.202h-1.322v-5.548h1.322V65.202z M227.542,62.43c0,0.426,0.143,0.797,0.428,1.109
			c0.143,0.229,0.325,0.398,0.555,0.513c0.229,0.085,0.472,0.13,0.727,0.13c0.398,0,0.754-0.174,1.066-0.516
			c0.342-0.339,0.513-0.738,0.513-1.193c0-0.539-0.185-0.968-0.558-1.281c-0.312-0.342-0.666-0.512-1.065-0.512
			c-0.453,0-0.838,0.17-1.15,0.512C227.712,61.503,227.542,61.917,227.542,62.43z M221.271,57.82h1.32v7.382h-1.32V57.82z
			 M225.236,57.82v1.194h-1.322V57.82H225.236z M227.073,60.296c0.227-0.229,0.524-0.412,0.896-0.556
			c0.369-0.17,0.728-0.256,1.067-0.256c0.795,0,1.438,0.285,1.919,0.854v-0.684h1.195v4.565c0,0.909-0.229,1.636-0.684,2.177
			c-0.256,0.343-0.597,0.613-1.023,0.812c-0.398,0.198-0.854,0.299-1.363,0.299c-0.628,0-1.197-0.172-1.708-0.512
			c-0.484-0.342-0.826-0.783-1.023-1.323h1.492c0.342,0.396,0.799,0.597,1.364,0.597c0.484,0,0.883-0.155,1.195-0.469
			c0.312-0.341,0.483-0.768,0.513-1.279c-0.482,0.599-1.093,0.896-1.833,0.896c-0.514,0-1.024-0.171-1.538-0.511
			c-0.428-0.259-0.754-0.642-0.979-1.153c-0.201-0.427-0.301-0.868-0.301-1.323C226.263,61.604,226.533,60.893,227.073,60.296z
			 M218.793,65.202V57.82h1.324v7.382H218.793z M214.996,60.639c-0.368,0-0.698,0.127-0.981,0.383
			c-0.312,0.229-0.512,0.541-0.599,0.938h3.113c-0.084-0.341-0.239-0.642-0.469-0.896C215.777,60.779,215.424,60.639,214.996,60.639
			z M213.674,59.74c0.427-0.198,0.854-0.299,1.277-0.299c0.912,0,1.652,0.343,2.221,1.023c0.456,0.567,0.685,1.207,0.685,1.92
			l-0.084,0.641h-4.312c0.085,0.314,0.272,0.6,0.557,0.854c0.281,0.198,0.598,0.3,0.938,0.3c0.543,0,0.955-0.241,1.238-0.727h1.451
			c-0.143,0.481-0.428,0.896-0.853,1.235c-0.514,0.483-1.11,0.728-1.794,0.728c-0.57,0-1.107-0.156-1.622-0.469
			c-0.454-0.285-0.811-0.698-1.065-1.238c-0.172-0.397-0.258-0.812-0.258-1.236c0-0.655,0.188-1.25,0.555-1.795
			C212.894,60.253,213.245,59.939,213.674,59.74z M207.656,60.296c0.197,0.228,0.326,0.483,0.383,0.769
			c0.087,0.283,0.131,0.653,0.131,1.108v3.03h-1.364v-2.73c0-0.685-0.104-1.151-0.302-1.408c-0.085-0.111-0.213-0.215-0.383-0.299
			c-0.146-0.057-0.285-0.086-0.428-0.086c-0.199,0-0.385,0.058-0.557,0.17c-0.172,0.114-0.313,0.242-0.427,0.386
			c-0.087,0.112-0.145,0.271-0.17,0.47l-0.044,3.499h-1.324v-5.549h1.238v0.473c0.229-0.229,0.483-0.386,0.77-0.473
			c0.229-0.111,0.483-0.168,0.769-0.168c0.343,0,0.669,0.067,0.981,0.213C207.215,59.841,207.457,60.039,207.656,60.296z
			 M208.767,59.654h0.684V57.82h1.281v1.834h0.81v1.238h-0.81v4.31h-1.281v-4.31h-0.684V59.654z M200.573,57.82h1.364v7.382h-1.364
			V57.82z M192.979,61.191c0-0.515,0.185-0.924,0.554-1.236c0.342-0.314,0.784-0.471,1.323-0.471s1.011,0.214,1.408,0.642
			c0.229,0.283,0.355,0.64,0.385,1.065h-1.323c-0.058-0.342-0.228-0.515-0.513-0.515c-0.144,0-0.256,0.06-0.342,0.173
			c-0.113,0.086-0.172,0.199-0.172,0.342c0,0.17,0.102,0.3,0.301,0.385l0.642,0.212c0.481,0.146,0.823,0.301,1.022,0.47
			c0.342,0.314,0.512,0.711,0.512,1.196c0,0.569-0.198,1.038-0.598,1.407c-0.396,0.369-0.867,0.556-1.408,0.556
			c-0.313,0-0.625-0.085-0.939-0.256c-0.282-0.113-0.51-0.3-0.682-0.554c-0.201-0.258-0.313-0.644-0.342-1.153h1.322
			c0.085,0.285,0.188,0.483,0.299,0.598c0.114,0.085,0.256,0.13,0.428,0.13s0.312-0.045,0.427-0.13
			c0.112-0.114,0.171-0.256,0.171-0.427s-0.059-0.298-0.171-0.384c-0.142-0.114-0.399-0.229-0.767-0.343l-0.644-0.256l-0.383-0.257
			C193.148,62.074,192.979,61.674,192.979,61.191z M191.824,60.126c0.228,0.283,0.355,0.64,0.385,1.065h-1.321
			c-0.06-0.342-0.229-0.515-0.515-0.515c-0.143,0-0.256,0.06-0.34,0.173c-0.114,0.086-0.172,0.199-0.172,0.342
			c0,0.17,0.099,0.3,0.299,0.385l0.64,0.212c0.483,0.146,0.825,0.301,1.024,0.47c0.343,0.314,0.512,0.711,0.512,1.196
			c0,0.569-0.198,1.038-0.598,1.407c-0.368,0.369-0.84,0.556-1.407,0.556c-0.312,0-0.626-0.085-0.938-0.256
			c-0.285-0.113-0.514-0.3-0.685-0.554c-0.199-0.258-0.312-0.644-0.342-1.153h1.365c0.057,0.285,0.144,0.483,0.256,0.598
			c0.115,0.085,0.257,0.13,0.428,0.13s0.313-0.045,0.426-0.13c0.113-0.114,0.173-0.256,0.173-0.427s-0.06-0.298-0.173-0.384
			c-0.141-0.114-0.396-0.229-0.767-0.343l-0.642-0.256l-0.385-0.257c-0.342-0.312-0.513-0.712-0.513-1.194
			c0-0.515,0.187-0.924,0.554-1.236c0.344-0.314,0.784-0.471,1.324-0.471C190.984,59.484,191.454,59.698,191.824,60.126z
			 M184.954,60.639c-0.369,0-0.696,0.127-0.98,0.383c-0.313,0.229-0.514,0.541-0.599,0.938h3.115
			c-0.086-0.341-0.242-0.642-0.471-0.896C185.734,60.779,185.381,60.639,184.954,60.639z M183.674,59.74
			c0.399-0.198,0.813-0.299,1.237-0.299c0.912,0,1.649,0.343,2.221,1.023c0.453,0.567,0.684,1.207,0.684,1.92l-0.086,0.641h-4.31
			c0.112,0.314,0.298,0.6,0.556,0.854c0.282,0.198,0.598,0.3,0.938,0.3c0.54,0,0.954-0.241,1.236-0.727h1.451
			c-0.143,0.481-0.41,0.896-0.812,1.235c-0.54,0.483-1.151,0.728-1.835,0.728c-0.57,0-1.107-0.156-1.622-0.469
			c-0.455-0.285-0.797-0.698-1.022-1.238c-0.199-0.397-0.302-0.812-0.302-1.236c0-0.655,0.188-1.25,0.558-1.795
			C182.851,60.253,183.219,59.939,183.674,59.74z M176.164,65.202v-5.548h1.193v0.472c0.256-0.229,0.513-0.386,0.769-0.472
			c0.229-0.112,0.483-0.17,0.77-0.17c0.342,0,0.67,0.069,0.98,0.214c0.284,0.143,0.54,0.341,0.77,0.598
			c0.172,0.228,0.285,0.483,0.342,0.769c0.086,0.283,0.127,0.653,0.127,1.108v3.03h-1.364v-2.73c0-0.685-0.101-1.151-0.299-1.408
			c-0.087-0.111-0.199-0.215-0.343-0.299c-0.17-0.057-0.325-0.086-0.469-0.086c-0.199,0-0.386,0.058-0.556,0.17
			c-0.171,0.114-0.299,0.242-0.385,0.386c-0.086,0.112-0.143,0.271-0.172,0.47l-0.084,3.499L176.164,65.202L176.164,65.202z
			 M167.842,59.654v5.548h-1.237v-0.556c-0.229,0.284-0.441,0.482-0.641,0.599c-0.199,0.114-0.469,0.171-0.811,0.171
			c-0.599,0-1.123-0.199-1.579-0.598c-0.256-0.229-0.427-0.482-0.512-0.769c-0.114-0.312-0.171-0.684-0.171-1.108v-3.287h1.322
			v2.858c0,0.539,0.084,0.925,0.255,1.151c0.2,0.342,0.499,0.513,0.896,0.513c0.37,0,0.653-0.143,0.853-0.427
			c0.171-0.284,0.256-0.698,0.256-1.237v-2.858H167.842z M170.743,59.484c0.569,0,1.04,0.214,1.409,0.642
			c0.228,0.283,0.354,0.64,0.383,1.065h-1.322c-0.059-0.342-0.229-0.515-0.512-0.515c-0.143,0-0.255,0.06-0.341,0.173
			c-0.114,0.086-0.17,0.199-0.17,0.342c0,0.17,0.099,0.3,0.297,0.385l0.641,0.212c0.483,0.146,0.826,0.301,1.024,0.47
			c0.341,0.314,0.512,0.711,0.512,1.196c0,0.569-0.199,1.038-0.6,1.407c-0.369,0.369-0.838,0.556-1.406,0.556
			c-0.313,0-0.626-0.085-0.939-0.256c-0.283-0.113-0.512-0.3-0.683-0.554c-0.199-0.258-0.313-0.644-0.34-1.153h1.364
			c0.057,0.285,0.144,0.483,0.256,0.598c0.113,0.085,0.254,0.13,0.426,0.13c0.171,0,0.312-0.045,0.428-0.13
			c0.114-0.114,0.17-0.256,0.17-0.427s-0.056-0.298-0.17-0.384c-0.143-0.114-0.397-0.229-0.768-0.343l-0.641-0.256l-0.384-0.257
			c-0.342-0.312-0.512-0.712-0.512-1.194c0-0.515,0.185-0.924,0.555-1.236C169.791,59.641,170.231,59.484,170.743,59.484z
			 M174.968,59.016h-1.322V57.82h1.322V59.016z M173.646,59.654h1.322v5.548h-1.322V59.654z M93.037,60.68
			c-0.456,0-0.839,0.17-1.154,0.512c-0.312,0.313-0.469,0.728-0.469,1.238c0,0.426,0.128,0.797,0.384,1.109
			c0.144,0.229,0.328,0.398,0.557,0.513c0.255,0.085,0.497,0.13,0.725,0.13c0.399,0,0.769-0.174,1.109-0.516
			c0.312-0.339,0.469-0.738,0.469-1.193c0-0.539-0.17-0.968-0.512-1.281C93.805,60.85,93.435,60.68,93.037,60.68z M94.785,59.654
			h1.238v4.565c0,0.909-0.243,1.636-0.728,2.177c-0.255,0.343-0.583,0.613-0.979,0.812c-0.428,0.198-0.882,0.299-1.365,0.299
			c-0.655,0-1.224-0.172-1.708-0.512c-0.511-0.342-0.867-0.783-1.066-1.323h1.493c0.341,0.396,0.797,0.597,1.367,0.597
			c0.482,0,0.895-0.155,1.237-0.469c0.285-0.341,0.44-0.768,0.469-1.279c-0.456,0.599-1.052,0.896-1.792,0.896
			c-0.541,0-1.053-0.171-1.537-0.511c-0.456-0.259-0.796-0.642-1.024-1.153c-0.199-0.427-0.298-0.868-0.298-1.323
			c0-0.823,0.285-1.536,0.854-2.134c0.228-0.229,0.511-0.412,0.853-0.556c0.371-0.17,0.739-0.256,1.11-0.256
			c0.796,0,1.423,0.284,1.877,0.854V59.654L94.785,59.654z M81.601,59.654h1.322v5.548h-1.322V59.654z M82.922,59.016h-1.321V57.82
			h1.322L82.922,59.016L82.922,59.016z M87.489,61.064c-0.085-0.113-0.2-0.215-0.342-0.3c-0.145-0.058-0.284-0.088-0.427-0.088
			c-0.199,0-0.398,0.06-0.599,0.173c-0.17,0.112-0.299,0.24-0.383,0.385c-0.085,0.112-0.143,0.271-0.171,0.469l-0.042,3.499h-1.324
			v-5.548h1.237v0.472c0.227-0.229,0.469-0.386,0.725-0.472c0.255-0.112,0.526-0.17,0.812-0.17c0.312,0,0.64,0.069,0.98,0.214
			c0.284,0.143,0.526,0.341,0.725,0.598c0.172,0.228,0.285,0.483,0.342,0.769c0.084,0.283,0.128,0.653,0.128,1.108v3.03h-1.366
			v-2.73C87.787,61.788,87.688,61.318,87.489,61.064z M74.602,60.639c-0.398,0-0.74,0.127-1.023,0.383
			c-0.285,0.229-0.471,0.541-0.555,0.938h3.115c-0.085-0.341-0.256-0.642-0.513-0.896C75.342,60.779,74.999,60.639,74.602,60.639z
			 M78.399,59.654h1.235v0.513c0.2-0.255,0.386-0.44,0.556-0.554c0.17-0.086,0.383-0.129,0.64-0.129h0.128v1.28
			c-0.398,0-0.712,0.128-0.938,0.384c-0.199,0.198-0.3,0.513-0.3,0.938v3.114h-1.321L78.399,59.654L78.399,59.654z M71.913,63.708
			c-0.17-0.397-0.256-0.812-0.256-1.235c0-0.656,0.171-1.25,0.511-1.795c0.285-0.426,0.655-0.738,1.109-0.938
			c0.398-0.198,0.825-0.299,1.281-0.299c0.909,0,1.636,0.343,2.176,1.023c0.484,0.568,0.727,1.208,0.727,1.921l-0.085,0.642h-4.31
			c0.084,0.312,0.255,0.599,0.512,0.853c0.284,0.199,0.611,0.3,0.981,0.3c0.512,0,0.924-0.242,1.236-0.727h1.451
			c-0.171,0.484-0.455,0.896-0.853,1.236c-0.541,0.483-1.14,0.728-1.793,0.728c-0.598,0-1.14-0.156-1.621-0.469
			C72.496,64.662,72.142,64.25,71.913,63.708z M70.035,59.654h1.452l-2.262,5.548H68.2l-2.262-5.548h1.449l1.366,3.671
			L70.035,59.654z M64.02,65.202v-5.548h1.321v5.548H64.02z M57.66,60.639c-0.397,0-0.74,0.127-1.024,0.383
			c-0.284,0.229-0.47,0.541-0.554,0.938h3.115c-0.084-0.341-0.257-0.642-0.512-0.896C58.4,60.779,58.059,60.639,57.66,60.639z
			 M61.458,57.82h1.322v7.382h-1.322V57.82z M64.02,59.016V57.82h1.321v1.194L64.02,59.016L64.02,59.016z M54.971,63.708
			c-0.169-0.397-0.255-0.812-0.255-1.235c0-0.656,0.169-1.25,0.512-1.795c0.284-0.426,0.654-0.738,1.109-0.938
			c0.397-0.198,0.824-0.299,1.28-0.299c0.882,0,1.607,0.343,2.176,1.023c0.456,0.568,0.684,1.208,0.684,1.921l-0.084,0.642h-4.268
			c0.084,0.312,0.255,0.599,0.511,0.853c0.284,0.199,0.611,0.3,0.981,0.3c0.511,0,0.91-0.242,1.194-0.727h1.45
			c-0.143,0.484-0.411,0.896-0.81,1.236c-0.541,0.483-1.138,0.728-1.792,0.728c-0.597,0-1.138-0.156-1.621-0.469
			C55.555,64.662,55.199,64.25,54.971,63.708z M51.174,59.312c-0.37-0.17-0.869-0.254-1.495-0.254h-0.256v4.904h0.299
			c0.427,0,0.782-0.027,1.067-0.085c0.255-0.085,0.512-0.196,0.767-0.34c0.342-0.198,0.612-0.485,0.811-0.854
			c0.171-0.369,0.255-0.752,0.255-1.15c0-0.57-0.17-1.083-0.511-1.537C51.885,59.684,51.572,59.455,51.174,59.312z M52.368,58.375
			c0.512,0.284,0.91,0.727,1.195,1.323c0.284,0.569,0.426,1.181,0.426,1.836c0,0.881-0.255,1.678-0.769,2.389
			c-0.369,0.454-0.811,0.783-1.322,0.983c-0.569,0.197-1.28,0.297-2.135,0.297h-1.707V57.82h1.665
			C50.861,57.82,51.743,58.006,52.368,58.375z M253.914,61.021c-0.283,0.229-0.481,0.541-0.598,0.938h3.115
			c-0.086-0.341-0.242-0.643-0.471-0.896c-0.286-0.284-0.642-0.426-1.066-0.426C254.525,60.639,254.198,60.766,253.914,61.021z
			 M252.505,60.68c0.285-0.427,0.654-0.738,1.108-0.938c0.4-0.198,0.812-0.298,1.238-0.298c0.912,0,1.649,0.342,2.219,1.022
			c0.457,0.567,0.685,1.207,0.685,1.92l-0.084,0.642h-4.312c0.115,0.313,0.299,0.599,0.557,0.854
			c0.283,0.198,0.599,0.302,0.938,0.302c0.543,0,0.955-0.244,1.237-0.729h1.451c-0.143,0.482-0.411,0.896-0.811,1.236
			c-0.541,0.482-1.152,0.727-1.836,0.727c-0.569,0-1.109-0.156-1.621-0.469c-0.455-0.285-0.797-0.698-1.024-1.238
			c-0.171-0.396-0.256-0.812-0.256-1.236C251.994,61.816,252.164,61.223,252.505,60.68z M250.671,60.253
			c0.198,0.197,0.342,0.397,0.428,0.597c0.112,0.172,0.215,0.386,0.299,0.644h-1.494c-0.145-0.284-0.313-0.484-0.512-0.601
			c-0.197-0.141-0.455-0.213-0.769-0.213c-0.399,0-0.741,0.145-1.024,0.428C247.199,61.42,247,61.874,247,62.473
			c0,0.484,0.187,0.896,0.556,1.237c0.284,0.313,0.655,0.472,1.109,0.472c0.512,0,0.923-0.259,1.237-0.77h1.494
			c-0.199,0.568-0.498,1.009-0.896,1.32c-0.256,0.201-0.54,0.355-0.854,0.471c-0.342,0.145-0.686,0.214-1.023,0.214
			c-0.541,0-1.083-0.171-1.623-0.511c-0.427-0.285-0.755-0.67-0.979-1.154c-0.229-0.398-0.342-0.838-0.342-1.322
			c0-0.854,0.325-1.58,0.979-2.177c0.568-0.513,1.224-0.769,1.965-0.769C249.392,59.484,250.073,59.74,250.671,60.253z
			 M237.57,61.96c-0.086-0.341-0.242-0.642-0.471-0.896c-0.312-0.285-0.668-0.427-1.065-0.427c-0.371,0-0.714,0.127-1.025,0.382
			c-0.283,0.229-0.47,0.541-0.555,0.938L237.57,61.96L237.57,61.96z M238.681,63.454c-0.144,0.483-0.427,0.896-0.854,1.237
			c-0.512,0.481-1.108,0.726-1.791,0.726c-0.598,0-1.139-0.156-1.623-0.469c-0.455-0.285-0.811-0.698-1.065-1.238
			c-0.173-0.397-0.258-0.812-0.258-1.237c0-0.653,0.171-1.25,0.514-1.793c0.313-0.427,0.684-0.738,1.107-0.938
			c0.43-0.198,0.854-0.298,1.281-0.298c0.911,0,1.636,0.342,2.177,1.022c0.482,0.567,0.728,1.207,0.728,1.92l-0.086,0.642h-4.31
			c0.085,0.313,0.254,0.599,0.513,0.854c0.312,0.198,0.641,0.302,0.98,0.302c0.54,0,0.952-0.244,1.237-0.729L238.681,63.454
			L238.681,63.454z M244.313,60.296c0.199,0.228,0.326,0.483,0.383,0.769c0.087,0.283,0.13,0.653,0.13,1.108v3.03h-1.366v-2.73
			c0-0.685-0.1-1.151-0.298-1.408c-0.086-0.111-0.216-0.215-0.384-0.299c-0.145-0.057-0.286-0.086-0.43-0.086
			c-0.199,0-0.385,0.058-0.556,0.17c-0.171,0.114-0.298,0.242-0.383,0.386c-0.115,0.112-0.188,0.271-0.215,0.47l-0.043,3.499h-1.281
			v-5.549h1.197v0.473c0.254-0.229,0.513-0.386,0.767-0.473c0.229-0.111,0.485-0.168,0.771-0.168c0.34,0,0.668,0.067,0.98,0.213
			C243.872,59.841,244.113,60.039,244.313,60.296z"/>
	</g>
</g>
</svg>
